<svg xmlns="http://www.w3.org/2000/svg" xmlns:xlink="http://www.w3.org/1999/xlink" width="2056" height="770" viewBox="0 0 2056 770">
  <defs>
    <style>
      .cls-1 {
        isolation: isolate;
      }

      .cls-2 {
        opacity: 0.25;
        mix-blend-mode: multiply;
      }

      .cls-3 {
        fill: #f44336;
      }

      .cls-4 {
        fill: #4caf50;
      }

      .cls-5 {
        fill: #3f51b5;
      }

      .cls-6 {
        fill: #9c27b0;
      }

      .cls-7 {
        fill: #ff5722;
      }

      .cls-8 {
        fill: #ffeb3b;
      }

      .cls-9 {
        font-size: 13.93px;
        stroke: #fff;
        stroke-miterlimit: 10;
        font-family: Roboto-Regular, Roboto;
      }

      .cls-10 {
        fill: #fff;
      }
    </style>
  </defs>
  <title>line-thing</title>
  <g class="cls-1">
    <g id="Lines">
      <g id="catid-3">
        <path class="cls-3" d="M944.53,91.86a95.47,95.47,0,0,0-7.7-15C965,71,993.08,64.67,1021.09,58q23.19-5.53,46.25-11.55,11.54-3,23-6.07l11.25-3.11c4-1.21,8-2.29,12-3.33,15.89-4.17,31.84-7.47,47.87-10.35s32.14-5.18,48.33-6.81a592.72,592.72,0,0,1,97.44-2.4l6.08.4c2,.13,4.05.26,6.08.48l12.14,1.19c4,.43,8.07,1,12.1,1.55l6,.81,6,1a374.57,374.57,0,0,1,47.43,11l11.6,3.63,11.41,4.19,2.84,1.05,1.42.53,1.4.6,5.58,2.39,5.57,2.39,2.78,1.19c.92.42,1.81.89,2.72,1.34l10.81,5.44c1.82.86,3.54,1.92,5.29,2.92l5.23,3,5.22,3c1.73,1,3.37,2.19,5.06,3.28l10,6.71-10.69-5.46c-1.79-.89-3.51-1.89-5.34-2.7L1468.51,62l-5.46-2.42c-1.82-.8-3.61-1.66-5.5-2.31l-11.16-4.2-2.78-1-2.84-.91-5.66-1.82-5.65-1.81-1.41-.45-1.44-.38-2.87-.76-11.46-3.06-11.58-2.54c-1.93-.4-3.84-.89-5.79-1.21l-5.84-1-5.83-1-2.91-.51c-1-.16-2-.27-2.93-.4l-11.72-1.56c-1.94-.3-3.92-.42-5.88-.62l-5.88-.55-5.88-.55-5.9-.36c-3.93-.21-7.85-.53-11.79-.66l-11.8-.31c-2-.08-3.93-.06-5.9,0l-5.9,0c-15.74.11-31.47.77-47.14,2.23s-31.3,3.27-46.84,5.75-31,5.44-46.32,8.89-30.53,7.46-45.44,11.93c-3.72,1.13-7.4,2.27-11,3.51l-11.73,3.74q-11.56,3.62-23.13,7.07c-15.45,4.57-30.94,8.92-46.48,13.14-26.21,7.16-52.59,13.69-79.07,19.8A115.91,115.91,0,0,0,944.53,91.86ZM597.61,147.6c16.38.89,32.73,1.2,49,1.07,6.53-.07,13-.23,19.55-.44q4-3.35,8.08-6.68l2-4.24,7.67-16.49q1.91-4.08,3.84-8.17c-13.89.85-27.77,1.44-41.63,1.7a689,689,0,0,1-72.88-2.07q5.92,17.19,11.29,34.48Q591.08,147.24,597.61,147.6ZM296.81,57.42q3.1,4.13,6,8.35a121.59,121.59,0,0,1,17,2.44c7.27,1.56,14.62,3.63,22,5.89s14.76,4.82,22.17,7.5c14.8,5.29,29.61,11,44.4,16.88s29.63,11.74,44.45,17.69l5.52,2.22c.11-1,.23-2.07.31-3.1q.28-2.83.45-5.67l.39-5.89q.56-8.59,1.33-17.22c-29.1-10.68-58.22-21.28-88.19-30.78-15.51-4.89-31.35-9.4-48.24-12.26a139.39,139.39,0,0,0-26.23-1.95,110.27,110.27,0,0,0-13.8,1.29A135.68,135.68,0,0,1,296.81,57.42ZM856,104.57q7.56,9.7,14.89,19.47,22.75-4.27,45.36-9.07a81.12,81.12,0,0,0-3.4-10c-3.57-8.5-8.5-15.57-14.67-20.44q-25.39,4.85-50.87,9.11Q851.7,99.07,856,104.57Zm-65.65-2.31q-10.72,5.92-21.22,12.52C754.43,124,740.1,134,726,144.53q9-.79,17.9-1.68c30.32-3.19,60.46-7.36,90.44-12.3-8.35-10.57-16.83-20.93-25.5-30.9Q799.61,101,790.35,102.26ZM260.44,48.46c-4.16,1.24-8.23,2.55-12.26,3.86l-22.75,7.5Q219.7,61.7,214,63.49c-3.06,3.8-6,7.82-8.72,12-.86,1.31-1.71,2.63-2.54,4l-2.54,4.1c-.73,1.18-1.48,2.33-2.24,3.49l9.6-2.15c7.87-1.84,15.74-3.74,23.55-5.78s15.58-4.15,23.23-6.19,15.2-4,22.53-5.35l1.13-.2a115.76,115.76,0,0,0-9.36-11.57A59.89,59.89,0,0,0,260.44,48.46Zm239.08,84.41a412.68,412.68,0,0,0,48.16,9.86q-3.33-10.64-6.85-21.19-2.31-6.9-4.73-13.73c-9.61-1.57-19.12-3.48-28.48-5.8-3.65-1-7.34-1.93-11-3l-5.41-1.65L490,97c-.3,3-.61,6-.87,9l-.54,6q-.28,3.12-.65,6.25t-.78,6.24c-.19,1.48-.42,3-.65,4.44l.93.31C491.44,130.56,495.49,131.68,499.53,132.87Zm-312-56.67,2.36-4.33c.27-.49.55-1,.82-1.45l-10.53,2.75c-3.76.86-7.55,1.62-11.33,2.44q-5.7,1-11.43,1.84l-5.75.62c-1.92.19-3.84.48-5.76.54l-5.77.33c-1.93.16-3.85.16-5.78.17l-5.79,0-5.77-.26-2.89-.13c-1,0-1.92-.18-2.88-.26l-5.76-.58c-1.91-.24-3.81-.58-5.72-.86l-2.87-.44L99.82,76c-1.89-.4-3.8-.75-5.68-1.2l-5.62-1.47a155.5,155.5,0,0,1-21.85-8A144,144,0,0,1,46.26,53.75,138.1,138.1,0,0,1,27.81,38.94c-2.9-2.71-5.61-5.62-8.25-8.59a91.76,91.76,0,0,1-7.4-9.4A108.5,108.5,0,0,0,25.85,40.79,142.06,142.06,0,0,0,43.11,57.93,146.69,146.69,0,0,0,63.19,72,155.25,155.25,0,0,0,85.5,82.53a163.84,163.84,0,0,0,23.82,6.9l6.12,1.11c1,.17,2,.4,3.07.52l3.08.39,6.18.76,6.2.45a210.8,210.8,0,0,0,44.11-2c1.65-2.16,3.24-4.37,4.72-6.65C184.48,81.51,186,78.87,187.48,76.2Zm15.22,3.24c.83-1.33,1.69-2.65,2.54-4,2.75-4.17,5.66-8.19,8.72-12q-5.59,1.74-11.19,3.43l-11.4,3.32-.7.18c-.27.49-.56,1-.82,1.45l-2.36,4.33c-1.46,2.67-3,5.3-4.69,7.85-1.48,2.28-3.06,4.49-4.72,6.65,1.81-.26,3.62-.54,5.43-.84l12.17-2.33,2.23-.5c.76-1.15,1.52-2.31,2.24-3.49ZM536.11,107.8q2.41,6.84,4.73,13.73,3.53,10.54,6.85,21.19l.77.12c12,1.76,24.06,3,36.09,3.91q-5.4-17.29-11.29-34.48c-6.82-.58-13.63-1.25-20.4-2.08Q544.44,109.15,536.11,107.8ZM847.3,93.6q-6.45,1.07-12.9,2.09-12.76,2.07-25.54,4c8.66,10,17.14,20.33,25.5,30.9l5.64-.93q15.47-2.67,30.88-5.57-7.35-9.77-14.89-19.47Q851.7,99.07,847.3,93.6Z" transform="translate(16 28)"/>
      </g>
      <g id="catid-2">
        <path class="cls-4" d="M730.69,103.24q1.79-3.54,3.63-7,8.08-5.48,16.36-10.74c8.92-5.64,18-11,27.45-16.12,1.79,1.34,3.6,2.79,5.39,4.33a235,235,0,0,1,21.05,21.08l-3,1.47c-3.78,1.91-7.53,3.93-11.27,6q-25,3.39-50,6-6.38.68-12.77,1.28C728.6,107.42,729.64,105.32,730.69,103.24Zm827.79,62.66a431.09,431.09,0,0,0,26.69-35.3c-9.42,11.32-19.17,22.34-29.49,32.74-2.54,2.64-5.24,5.12-7.84,7.68s-5.39,4.95-8.05,7.44c-1.44,1.3-2.9,2.57-4.37,3.84q1.15,3.15,2.22,6.31C1545,181.36,1551.88,173.75,1558.48,165.91Zm-965.4,76.78a57.31,57.31,0,0,1-10.16-8,67.39,67.39,0,0,1-5.38-5.92q-4.46,4.38-8.9,8.76l-10.39,10.27,1.27.07q21.48,1.24,43,2.39l2.48-2.37A47.89,47.89,0,0,1,593.08,242.68ZM202.77,66.91q5.61-1.69,11.19-3.43c.77-1,1.55-1.91,2.34-2.84A73.91,73.91,0,0,1,229,48.7c4.49-3.22,9.22-5.38,13.7-5.88A22.06,22.06,0,0,1,256,45.63a37.57,37.57,0,0,1,4.46,2.83c3.77-1.13,7.6-2.21,11.55-3.18s8.09-1.82,12.28-2.47c-.44-.44-.88-.88-1.33-1.32A70,70,0,0,0,264.5,28.33a44.34,44.34,0,0,0-11.82-3.7,38.7,38.7,0,0,0-12.76.08,42.18,42.18,0,0,0-11.69,3.91,55.25,55.25,0,0,0-9.71,6.26A90.51,90.51,0,0,0,203.67,50.4a162.94,162.94,0,0,0-11.34,17.08c-.56,1-1.11,2-1.66,2.94l.7-.18ZM602.54,204.68l.43.6a36.94,36.94,0,0,0,4,4.66,17.76,17.76,0,0,0,7.66,4.77,10.29,10.29,0,0,0,3.27.26,14.84,14.84,0,0,0,4-1,27.92,27.92,0,0,0,4.86-2.56,49,49,0,0,0,5.24-4,87.1,87.1,0,0,0,10.32-11c3.31-4.14,6.49-8.61,9.54-13.27s5.94-9.55,8.73-14.53,5.46-10.11,8-15.3c.87-1.73,1.71-3.47,2.55-5.22-1.67.06-3.34.1-5,.16q-20.62,17.16-40.53,35.09Q614,193.85,602.54,204.68Zm693.83-23.35,1.18,1.62-.49-.82,0,0ZM832.51,75.84c1.6,1.84,3.17,3.7,4.74,5.55,10.48-3.3,21-5.49,30.87-5.68A58.08,58.08,0,0,1,883,77.22a40.1,40.1,0,0,1,12.49,5.35q1.38.9,2.69,1.93,14.94-2.85,29.85-5.87l8.8-1.79c-1.25-2-2.58-3.92-4-5.81a73.56,73.56,0,0,0-41.46-27.35,92.54,92.54,0,0,0-23.8-2.59c-15.51.29-29.85,3.61-43.33,8-4.31,1.41-8.52,3-12.67,4.59C819.15,60.85,825.94,68.31,832.51,75.84ZM953,132.69l.41,3.82,0-1.8,0-.48-.07-.28ZM916.24,115c.49,1.79.94,3.61,1.33,5.45.56,2.71,1,5.46,1.36,8.22.17,1.37.31,2.75.41,4.1l.13,2,.06,1.57.1,2.52.31,1.3.3,1.23.27,1,.54,2c.37,1.32.75,2.61,1.14,3.9.79,2.57,1.63,5.1,2.52,7.61,1.79,5,3.79,10,6.06,14.9a124.05,124.05,0,0,0,17.74,28.48,79.63,79.63,0,0,0,13.38,12.53,61.43,61.43,0,0,0,17.57,9,56.89,56.89,0,0,0,20.09,2.62,66.74,66.74,0,0,0,18.77-3.76c11.58-4.1,21.16-10.29,29.71-16.94a192.93,192.93,0,0,0,23-21.62q5.23-5.7,10.07-11.59,2.42-2.95,4.78-5.92l4.49-5.76a173.55,173.55,0,0,1,18-19.78c12.78-12,27.44-21.05,43.18-24.26a68.33,68.33,0,0,1,24.06-.61,89.86,89.86,0,0,1,24.06,7.4c15.75,7.23,30.39,18.39,43.59,31.17a266.64,266.64,0,0,1,18.85,20.4q4.47,5.36,8.66,10.94,2.09,2.79,4.09,5.62l2,2.83,1.8,2.71.83,1.24.35.37,1.19,1.26,1.08,1.09,2.16,2.09c1.44,1.37,2.89,2.68,4.36,4q4.4,3.88,9,7.46a197.08,197.08,0,0,0,19.12,13.2A187.34,187.34,0,0,0,1359,244.12a157.29,157.29,0,0,0,45.93,6.89,154,154,0,0,0,19.88-1.33q2.14-7.53,4.45-15a138.65,138.65,0,0,1-23.94.79,144.25,144.25,0,0,1-40.69-8.36,168.34,168.34,0,0,1-37.07-19,194.75,194.75,0,0,1-16.63-12.64c-2.64-2.25-5.22-4.58-7.7-7-1.23-1.2-2.46-2.4-3.63-3.62l-1.72-1.82-.8-.88.49.82-1.18-1.62.68.78,0,0-.57-1-1-1.66-2-3.24q-2.07-3.21-4.21-6.32-4.28-6.25-8.88-12.26a267.59,267.59,0,0,0-19.75-23.09,219.58,219.58,0,0,0-22.79-20.76,159.59,159.59,0,0,0-26.61-17.09,114.83,114.83,0,0,0-31.07-10.57,96.32,96.32,0,0,0-33.81-.14,105,105,0,0,0-31.65,11.17,139.28,139.28,0,0,0-26.42,18.8,203.52,203.52,0,0,0-21.66,22.74l-4.59,5.61q-2.22,2.68-4.48,5.3-4.52,5.23-9.24,10.15a174.15,174.15,0,0,1-19.68,17.79c-6.79,5.15-13.92,9.33-20.72,11.56a34.28,34.28,0,0,1-9.68,1.81,24.06,24.06,0,0,1-8.57-1.27c-5.43-1.81-10.86-6-15.71-11.89a92.15,92.15,0,0,1-12.61-20.95c-1.76-3.91-3.35-8-4.77-12.08-.71-2.06-1.37-4.14-2-6.21-.31-1-.6-2.07-.87-3.09l-.32-1.22,0,.48,0,1.8-.41-3.82.3,1.26.07.28,0-1c0-1-.09-1.93-.16-2.88-.13-1.89-.3-3.76-.51-5.61-.42-3.71-1-7.38-1.71-11q-.61-3.06-1.37-6.11-7.35,1.7-14.71,3.35Q925.59,113,916.24,115Zm-384,158c-6.34,5.9-12.71,11.54-19.12,16.53-9.29,7.25-18.9,12.75-26.67,13.37A25.56,25.56,0,0,1,474.42,301a44.47,44.47,0,0,1-6.57-3.29l-.84-.49-.59-.39c-.39-.24-.87-.61-1.32-.93-1-.73-2-1.52-3-2.42a161.47,161.47,0,0,1-12.63-12.52c-4.19-4.55-8.32-9.31-12.41-14.15-.81-1-1.61-1.95-2.42-2.92l-16.83-1.66c-.4.36-.78.73-1.18,1.08-3.79,3.38-7.72,6.59-11.73,9.68,3.16,4.13,6.35,8.25,9.63,12.33,4.16,5.21,8.46,10.36,13,15.46a189.5,189.5,0,0,0,14.8,15.19c1.39,1.26,2.91,2.53,4.52,3.8.86.65,1.66,1.27,2.63,1.93l1.43,1,1.25.77A74.6,74.6,0,0,0,462.88,329a60.06,60.06,0,0,0,12.49,3.75,53.94,53.94,0,0,0,13.55.73,58.57,58.57,0,0,0,13-2.47,75.55,75.55,0,0,0,11.38-4.58,125.25,125.25,0,0,0,18.89-11.85C543.5,306.1,553.34,297,563,288q6-5.67,11.95-11.34l-17.4-1.45Q544.92,274.12,532.27,273ZM707.66,151.84c-1.58,3.42-3.22,7-4.92,10.56,1.45-1.15,2.89-2.32,4.34-3.47q9.4-7.31,18.92-14.41-7.77.68-15.56,1.27Zm-524.16-62c-1.8.3-3.61.58-5.43.84a113.52,113.52,0,0,1-20.2,20.36,149.62,149.62,0,0,1-32.35,19.13,215.39,215.39,0,0,1-36.34,12,297.65,297.65,0,0,1-77,7.59,264.73,264.73,0,0,0,39.07,2.05,272.28,272.28,0,0,0,39.21-3.34,212.49,212.49,0,0,0,38.48-9.75,155.51,155.51,0,0,0,35.91-18.21,124.85,124.85,0,0,0,29.53-28.37c1.24-1.66,2.41-3.37,3.56-5.1l-2.23.5Zm227.42,144c-14.81-19.48-29.1-39.5-43-59.7-7.27-10.62-14.45-21.34-21.23-32.11-1.69-2.69-3.35-5.38-4.95-8.06q-1.2-2-2.32-4l-2.3-4.1c-3.06-5.54-6.06-11.28-9.15-17-6.17-11.51-12.51-23.17-19.65-34.59q-2.69-4.29-5.55-8.52c-1.5-.1-3-.18-4.49-.21a104.78,104.78,0,0,0-20.33,1.78,209,209,0,0,1,11.52,18.23c6.19,10.92,11.82,22.37,17.44,34,2.81,5.84,5.66,11.72,8.66,17.68l2.31,4.49q1.22,2.3,2.45,4.52c1.65,3,3.31,5.85,5,8.72,6.73,11.45,13.7,22.56,20.79,33.62s14.34,22,21.75,32.8q5.29,7.74,10.68,15.42l28,1.79Q408.78,236.3,410.93,233.88Zm1085.69-11.82c1.57-1,3.16-2,4.71-3.11,3.05-2.19,6.17-4.28,9.11-6.61l4.46-3.42,4.33-3.56c.77-.62,1.53-1.25,2.28-1.89-.52-1.47-1-2.94-1.56-4.4-.41-1.1-.85-2.17-1.27-3.26a233.11,233.11,0,0,1-31.91,20.33,186.06,186.06,0,0,1-28.28,12q-1.78,6-3.47,12.07c-.23.83-.45,1.67-.67,2.51a182.82,182.82,0,0,0,37.49-17.67C1493.47,224.13,1495.05,223.1,1496.62,222.06ZM790.35,102.26q-25,3.39-50,6-6.38.68-12.77,1.28c-4.18,8.48-8.25,17.16-12.32,25.9l-4.8,10.39q7.79-.59,15.56-1.27C740.1,134,754.43,124,769.12,114.79Q779.61,108.2,790.35,102.26ZM898.17,84.5c6.17,4.87,11.1,11.94,14.67,20.44a81.12,81.12,0,0,1,3.4,10q9.34-2,18.66-4.06,7.36-1.65,14.71-3.35a115.91,115.91,0,0,0-5.08-15.71,95.47,95.47,0,0,0-7.7-15L928,78.63Q913.11,81.64,898.17,84.5Zm-223.89,57q-4.06,3.32-8.08,6.68c1.67-.05,3.34-.1,5-.16C672.23,145.92,673.25,143.75,674.28,141.54Zm-376-76c1.49,0,3,.11,4.49.21q-2.86-4.22-6-8.35a135.68,135.68,0,0,0-12.54-14.61c-4.19.65-8.3,1.49-12.28,2.47s-7.78,2-11.55,3.18a59.89,59.89,0,0,1,8.15,7.31,115.76,115.76,0,0,1,9.36,11.57A104.78,104.78,0,0,1,298.28,65.57Zm92.28,188.12q4.88-4.09,9.48-8.46c2.24-2.13,4.4-4.33,6.52-6.57l-28-1.79q5.93,8.44,12,16.81Zm27.26,8.5,16.83,1.66q-4.1-4.93-8.13-10Q422.28,258.17,417.82,262.19ZM730.69,103.24q1.79-3.54,3.63-7-10.44,7.08-20.54,14.51,6.9-.58,13.79-1.24C728.6,107.42,729.64,105.32,730.69,103.24ZM710.45,145.8c-13.05,1-26.13,1.76-39.24,2.26-.84,1.75-1.68,3.49-2.55,5.22-2.58,5.2-5.24,10.32-8,15.3s-5.68,9.88-8.73,14.53-6.23,9.13-9.54,13.27a87.1,87.1,0,0,1-10.32,11,49,49,0,0,1-5.24,4,27.92,27.92,0,0,1-4.86,2.56,14.84,14.84,0,0,1-4,1,10.29,10.29,0,0,1-3.27-.26,17.76,17.76,0,0,1-7.66-4.77,36.94,36.94,0,0,1-4-4.66l-.43-.6q-12.65,12-25,24.12a67.39,67.39,0,0,0,5.38,5.92,57.31,57.31,0,0,0,10.16,8A47.89,47.89,0,0,0,605,247.93c14.21-13.47,28.52-26.69,43.07-39.63q26.72-23.72,54.72-45.9c1.69-3.58,3.33-7.14,4.92-10.56Zm0,0,4.8-10.39c4.06-8.74,8.14-17.42,12.32-25.9q-6.89.66-13.79,1.24-14.21,10.41-27.89,21.36c-3.89,3.12-7.75,6.27-11.6,9.43-1,2.21-2,4.37-3.07,6.52C684.32,147.57,697.4,146.78,710.45,145.8Z" transform="translate(16 28)"/>
      </g>
      <g id="catid-5">
        <path class="cls-5" d="M554.93,166.6q-3.52-12-7.24-23.88l.77.12c12,1.76,24.06,3,36.09,3.91q1.57,5,3.11,10.06,3.52,11.58,6.87,23.2c2,7.1,4,14.14,5.9,21.37l-.08-.13-.35-.62-.14-.27s-.11-.23,0,0l1.13,3.1-.55-2.07c.23.4.47.81.73,1.22.44.7.91,1.39,1.39,2.08q-12.65,12-25,24.12c-.84-1-1.65-2.07-2.43-3.13-1.15-1.57-2.23-3.18-3.26-4.84-.51-.83-1-1.68-1.52-2.55l-.75-1.36-.39-.73-.5-1-.67-1.35-.45-1.75c-1.93-7.46-4.05-15.15-6.15-22.72S557.15,174.17,554.93,166.6ZM415,239.2l23.52,1.47q6.22-7.5,11.73-15.59a199.1,199.1,0,0,0,13-22,216.51,216.51,0,0,0,10.25-23.34,254.08,254.08,0,0,0,12.72-49c.1-.6.19-1.19.28-1.79l-5.09-1.7-3-1-3-1.13-6-2.26c-2-.75-3.74-1.49-5.63-2.24l-5.6-2.25c-.09.85-.16,1.7-.26,2.54-.19,1.88-.42,3.76-.67,5.63a225.67,225.67,0,0,1-10,43.85,190.4,190.4,0,0,1-19.07,40.27,180.1,180.1,0,0,1-17.35,23.2c.74,1,1.47,2,2.22,2.94ZM475,91.75c1.85.67,3.81,1.43,5.58,2l5.32,1.83,2.66.92L490,97c.48-4.76,1-9.5,1.59-14.2,1-7.67,2.11-15.28,3.54-22.66a145.61,145.61,0,0,1,5.38-20.83c.58-1.62,1.22-3.18,1.85-4.55A25.2,25.2,0,0,0,499.8,32c-.67-.62-1.2-.89-.91-.76a5.49,5.49,0,0,0,1.15.28,7.3,7.3,0,0,0,2.36-.08,6.72,6.72,0,0,0,2-.74,4.38,4.38,0,0,0,.52-.36c.07-.08.12-.12.11-.11l-.11.11A8.63,8.63,0,0,0,504,31.6a27.24,27.24,0,0,0-1.67,3.13c.87,1,1.79,2.25,2.67,3.51a141,141,0,0,1,10.52,18.53c3.27,6.72,6.32,13.74,9.22,20.88,4,9.88,7.75,20,11.35,30.16q8.33,1.36,16.75,2.39c6.77.83,13.57,1.5,20.4,2.08l-.54-1.59c-5.33-15.32-10.92-30.6-17.4-45.77-3.24-7.59-6.67-15.16-10.5-22.72A171.31,171.31,0,0,0,531.26,19.4c-1.4-1.92-2.9-3.85-4.61-5.8a56.19,56.19,0,0,0-5.94-5.92,36.06,36.06,0,0,0-9.06-5.76,27.36,27.36,0,0,0-6.87-2,24.83,24.83,0,0,0-8.32.17,25.1,25.1,0,0,0-7.59,2.8,28.13,28.13,0,0,0-5.44,4,37.85,37.85,0,0,0-6.4,8A68.84,68.84,0,0,0,470.74,29a175.29,175.29,0,0,0-6,25.6c-1.4,8.32-2.43,16.53-3.27,24.7q-.37,3.6-.69,7.19l3,1.09ZM600,200.64l-.14-.27s-.11-.23,0,0l1.13,3.1-.55-2.07-.08-.13Zm545.32,83.18a181.67,181.67,0,0,1-27,6.25,152.85,152.85,0,0,1-10.36,12.08,122.37,122.37,0,0,1-25.67,20.7,82.13,82.13,0,0,1-29.34,10.94,59.57,59.57,0,0,1-14.83.39,48,48,0,0,1-13.71-3.53,42.87,42.87,0,0,1-11.68-7.32,45.71,45.71,0,0,1-4.85-5c-.76-.89-1.46-1.83-2.16-2.78l-1-1.46-1.08-1.67c-2.89-4.52-5.78-9.7-8.71-14.91q-12.73.09-25.43,0l-7.68-.08c2.88,4.67,5.71,9.4,8.61,14.24,3.16,5.23,6.3,10.53,10.09,16.09l1.45,2.09,1.64,2.21c1.13,1.46,2.29,2.9,3.54,4.27a73.07,73.07,0,0,0,8,7.75,69.62,69.62,0,0,0,19.29,11.28,74.48,74.48,0,0,0,21.48,4.72,85.34,85.34,0,0,0,21.32-1.31A106.81,106.81,0,0,0,1095,343.33a142.29,142.29,0,0,0,29.65-25.9A187.76,187.76,0,0,0,1146.78,286c.61-1.08,1.2-2.16,1.79-3.24-.28.11-.56.22-.83.31ZM136.87,327.53l.16,0,.46,0ZM605,247.93l1.15.32a45,45,0,0,0,14.73,1.24,49.3,49.3,0,0,0,13.59-3.19,69.68,69.68,0,0,0,20.4-12.72,121.28,121.28,0,0,0,14.58-15.33A188.81,188.81,0,0,0,681,202.07c3.56-5.47,6.8-11,9.9-16.59s6-11.19,8.78-16.83c1-2.07,2-4.16,3-6.25Q674.8,184.55,648,208.3C633.47,221.23,619.16,234.46,605,247.93ZM808.86,99.64q12.78-1.88,25.54-4,6.45-1,12.9-2.09-4.94-6.14-10.06-12.22c-.73.23-1.46.45-2.19.69a243.88,243.88,0,0,0-30.47,12.71l2.74,3.07ZM384.26,258.76a218.48,218.48,0,0,1-20.16,13.88,260.13,260.13,0,0,1-41.24,20.15C294.1,304,263.4,310.9,232.29,314.89c-15.57,2-31.28,3.16-47,3.7q-11.81.39-23.65.21c-7.85-.14-15.84-.39-23.5-1l-.53,0h-.1l-31.33,1.08L74.83,320l-31.33,1.29-15.67.65-15.67.73,15.67.73,15.67.65,31.33,1.29,31.33,1.16L137,327.55l-.16,0,.62,0-.46,0c4.08.62,8,1.09,12,1.52s8,.81,12.07,1.11q12.08.93,24.2,1.27a482.62,482.62,0,0,0,48.54-1c32.35-2.26,64.74-7.9,96-18.36a279.5,279.5,0,0,0,45.56-19.9,232.05,232.05,0,0,0,29.49-19.26q-5-6.51-9.82-13.08ZM1257.53,233c11.78,1.06,23.58,2.82,35.32,5a626.17,626.17,0,0,1,69.79,17.8q27.92,8.7,55.28,19.35l.34-1.28q-10-4.93-20.08-9.54c-11-5-22.18-9.86-33.48-14.32a584.34,584.34,0,0,0-69.39-23c-11.87-3-23.9-5.6-36.13-7.47a234.84,234.84,0,0,0-37.29-2.91,158.48,158.48,0,0,0-19.06,1.26,113.12,113.12,0,0,0-19.13,4.07,87.34,87.34,0,0,0-18.51,8.07,71.74,71.74,0,0,0-16.25,13c-1,1-1.87,2.09-2.76,3.17l3.62-1.4a128.94,128.94,0,0,1,19-5.48,102.93,102.93,0,0,1,24.61-2.06,125.18,125.18,0,0,1,29-5A232.11,232.11,0,0,1,1257.53,233ZM921.38,191.4c-7.45-9.44-14.8-18.8-21.7-28.28L889,148.46l-10.83-14.69q-3.62-4.87-7.28-9.73-15.42,2.9-30.88,5.57l-5.64.93q8.94,11.32,17.73,22.86L863,167.78l10.89,14.52c7.51,9.95,15.25,19.5,23,28.89,14.37,17.34,28.46,34.31,41.6,51.87q15.54.14,31.07.11l5.17,0q-4.32-6.71-8.88-13.3C951.61,229.58,936.29,210.29,921.38,191.4Zm-416.45-161a4.38,4.38,0,0,1-.52.36,6.72,6.72,0,0,1-2,.74,7.3,7.3,0,0,1-2.36.08,5.49,5.49,0,0,1-1.15-.28c-.29-.13.24.15.91.76a25.2,25.2,0,0,1,2.55,2.7A27.24,27.24,0,0,1,504,31.6,8.63,8.63,0,0,1,504.93,30.37ZM734.32,96.24c1.48-2.79,3-5.55,4.52-8.23a149.39,149.39,0,0,1,8.67-13.7,48.75,48.75,0,0,1,8.88-9.77,14.33,14.33,0,0,1,3.5-2.09,7,7,0,0,1,2.65-.51,12,12,0,0,1,3.75.7A29.38,29.38,0,0,1,771.54,65a61.58,61.58,0,0,1,6.6,4.36c2.56-1.38,5.14-2.75,7.75-4.09,8.29-4.22,16.81-8.17,25.66-11.66-1.94-1.84-3.91-3.66-6-5.46a110.18,110.18,0,0,0-17.31-12.61A63,63,0,0,0,777,30.45a46,46,0,0,0-14-2.5,41.2,41.2,0,0,0-15.11,2.62,48.09,48.09,0,0,0-12.22,6.83,68.3,68.3,0,0,0-8.91,8.2,101.68,101.68,0,0,0-6.9,8.44C711.64,65.31,705.7,76.49,700,87.61c-4.27,8.37-8.28,16.72-12.2,25q13-.79,26-1.89Q723.9,103.34,734.32,96.24ZM459,109.62q-.18,2.84-.45,5.67c-.09,1-.21,2.07-.31,3.1l5.6,2.25c1.88.75,3.64,1.49,5.63,2.24l6,2.26,3,1.13,3,1,5.09,1.7c.23-1.48.45-3,.65-4.44q.44-3.12.78-6.24t.65-6.25l.54-6c.27-3,.57-6,.87-9l-1.44-.43-2.66-.92-5.32-1.83c-1.77-.61-3.73-1.36-5.58-2l-11.27-4.15-3-1.09q-.78,8.63-1.33,17.22Zm217.24,27.69-2,4.24c3.85-3.16,7.71-6.31,11.6-9.43q13.69-10.94,27.89-21.36-13,1.1-26,1.89-1.93,4.09-3.84,8.17ZM417.82,262.19q-11.37-1.14-22.73-2.32,4.84,6.57,9.82,13.08c4-3.08,7.93-6.3,11.73-9.68C417,262.91,417.42,262.54,417.82,262.19Zm-4.67-25.37c-.75-1-1.47-2-2.22-2.94q-2.14,2.43-4.37,4.78l8.42.54Zm365-167.43c1.79,1.34,3.6,2.79,5.39,4.33a235,235,0,0,1,21.05,21.08,243.88,243.88,0,0,1,30.47-12.71c.73-.24,1.46-.46,2.19-.69-1.57-1.85-3.14-3.71-4.74-5.55-6.57-7.53-13.35-15-21-22.2-8.85,3.49-17.37,7.44-25.66,11.66C783.28,66.63,780.7,68,778.14,69.39ZM390.55,253.69q-3.09,2.59-6.29,5.07l10.82,1.11Q392.81,256.78,390.55,253.69Zm765.71,13.48c.26-.59.56-1.15.85-1.72s.59-1.13.91-1.68.62-1.11,1-1.64a51,51,0,0,1,4.43-6.17c6.49-7.81,15.57-13.55,25.86-17.28,1.37-.5,2.77-1,4.17-1.41a102.93,102.93,0,0,0-24.61,2.06,128.94,128.94,0,0,0-19,5.48l-3.62,1.4c-1.34,1.63-2.62,3.31-3.81,5.06-.51.72-1,1.45-1.44,2.2s-.93,1.48-1.36,2.24-.88,1.51-1.28,2.28l-1.16,2.21c-2.65,5.13-5.47,10.16-8.5,15a178.75,178.75,0,0,1-10.33,14.86,181.67,181.67,0,0,0,27-6.25l2.42-.79c.27-.09.55-.2.83-.31q3.67-6.75,6.83-13.71Zm274.57,13.14c-4.15-2.21-8.35-4.34-12.57-6.43l-.34,1.28Q1424.39,277.68,1430.83,280.3ZM426.51,253.89q6.27-6.35,12-13.23L415,239.2Q420.69,246.61,426.51,253.89Zm0,0q-5.83-7.27-11.53-14.7l-8.42-.54c-2.12,2.24-4.28,4.44-6.52,6.57q-4.59,4.38-9.48,8.46,2.25,3.1,4.53,6.18,11.36,1.17,22.73,2.32Q422.28,258.17,426.51,253.89Z" transform="translate(16 28)"/>
      </g>
      <g id="catid-4">
        <path class="cls-6" d="M438.5,240.66q59.88,3.73,119.75,7.17c-5.77,5.71-11.53,11.38-17.29,16.93q-4.33,4.17-8.68,8.23-48.84-4.33-97.63-9.14-4.1-4.93-8.13-10Q432.78,247.55,438.5,240.66Zm939.25,152.4c-1.22,2.36-2.44,4.73-3.76,7-.66,1.12-1.27,2.3-2,3.38l-2,3.26a89.49,89.49,0,0,1-8.69,11.54c-3,3.25-6.2,5.86-8.71,7-.31.13-.61.27-.9.42s-.55.15-.81.25l-.39.15a2.18,2.18,0,0,1-.36.05,6.61,6.61,0,0,0-.68.14,9.32,9.32,0,0,1-2.56-.23,16.68,16.68,0,0,1-3.45-1.58,31,31,0,0,1-4.25-3.35,62.23,62.23,0,0,1-8.67-10.4,128.52,128.52,0,0,1-7.83-13.16l-7.08,2.27q-12.17,4-24.22,8.43A169.77,169.77,0,0,0,1304,429.21l1.43,2,1.52,2c1,1.33,2.1,2.64,3.2,3.94s2.33,2.59,3.5,3.88,2.5,2.55,3.92,3.78l2.11,1.84c.72.61,1.52,1.19,2.29,1.79,1.48,1.19,3.28,2.29,5,3.38a47.47,47.47,0,0,0,12.27,5.1,40.64,40.64,0,0,0,14.46.77c1.19-.19,2.35-.44,3.52-.68.58-.13,1.18-.24,1.73-.41l1.64-.53c1.08-.37,2.21-.73,3.23-1.17s2-.92,3-1.4c.48-.24,1-.47,1.45-.74l1.33-.8,2.64-1.64c1.6-1.15,3.18-2.34,4.68-3.56s2.81-2.48,4.1-3.76,2.47-2.57,3.66-3.87c9.06-10.49,15.11-21.44,20.52-32.39,4.72-9.69,8.72-19.46,12.34-29.26-11.62,1.3-23.18,2.92-34.62,4.94C1381.2,386,1379.52,389.6,1377.74,393.06Zm331.92-14c-2.2,1.81-4.31,3.71-6.61,5.38l-3.39,2.56-3.51,2.39c-.59.39-1.16.8-1.76,1.18l-1.81,1.09c-1.22.71-2.4,1.48-3.63,2.14l-3.73,1.94c-1.23.68-2.55,1.16-3.81,1.75a69.22,69.22,0,0,1-15.83,4.84,56.71,56.71,0,0,1-31.85-3.63c-10-4.16-18.89-10.75-26.71-18.43-1.31-1.29-2.58-2.62-3.84-4l-14.65-.66a148.53,148.53,0,0,0,12,11.72c9,7.76,19.14,14.5,30.61,18.38a65,65,0,0,0,17.72,3.43,62.43,62.43,0,0,0,17.84-1.72,73.8,73.8,0,0,0,16.47-6.38c1.28-.71,2.61-1.32,3.84-2.12l3.72-2.3c1.22-.78,2.39-1.66,3.58-2.48L1696,393c.58-.43,1.14-.89,1.71-1.34a140.26,140.26,0,0,0,16-14.65l-1.79.15C1711.16,377.78,1710.43,378.46,1709.66,379.09ZM1521.51,203.47c6.86,19.46,12.18,39.84,16.9,60.32q1.9,8.27,3.64,16.59l.87,4.17,1,4.36c.3,1.46.69,2.89,1,4.33s.71,2.88,1.12,4.31a194.74,194.74,0,0,0,12.4,33.3,191.31,191.31,0,0,0,10.91,19.65q7.56.59,15.1,1.21a177.31,177.31,0,0,1-13.63-26.41,188,188,0,0,1-9.9-31.44c-.32-1.33-.58-2.68-.84-4s-.56-2.69-.76-4l-.68-4.06-.67-4.26q-1.35-8.54-2.87-17.07-3-17.06-7-34c-2.64-11.32-5.6-22.6-9.21-33.85q-.63-2-1.29-3.9-4.86,4.82-9.95,9.41C1525.62,199.84,1523.59,201.69,1521.51,203.47Zm-63,24.7c2-6.71,4.08-13.37,6.33-19.92a238.62,238.62,0,0,1,12.38-30.07,91.06,91.06,0,0,1,7.8-12.76,37,37,0,0,1,4.22-4.76,14.51,14.51,0,0,1,3.51-2.38,3,3,0,0,1,1.89-.3,8.07,8.07,0,0,1,3.31,1.76,26.58,26.58,0,0,1,4.32,4.35c.73.84,1.42,1.86,2.14,2.8s1.4,2,2,3.1a119.78,119.78,0,0,1,7.32,13.91c1.75,3.87,3.38,7.87,4.94,11.91q2.19-1.63,4.37-3.31c2.87-2.22,5.66-4.57,8.5-6.85,1.28-1.12,2.58-2.23,3.87-3.35A154.51,154.51,0,0,0,1524.84,159c-.75-1.39-1.68-2.77-2.52-4.15-.45-.69-.94-1.38-1.41-2.07s-.95-1.38-1.49-2.06a48.58,48.58,0,0,0-7.47-8,30.33,30.33,0,0,0-11.63-6.37c-1.21-.31-2.49-.53-3.74-.73s-2.58-.15-3.87-.16a37.49,37.49,0,0,0-3.81.42,33.07,33.07,0,0,0-3.56.93,35.85,35.85,0,0,0-11.12,6.35,59.14,59.14,0,0,0-7.52,7.7,108.34,108.34,0,0,0-10.7,16.05,261.86,261.86,0,0,0-14.82,32.81c-4.41,11.61-8.32,23.29-11.91,35a145.84,145.84,0,0,0,17.74-3.2C1450.87,230.51,1454.7,229.41,1458.49,228.17Zm-19.74,78.31,2.09-8.43,2-8.44,3.88-16.64q3.64-15.19,7.66-30.22c-1.28.43-2.56.86-3.86,1.26a155.11,155.11,0,0,1-22.44,5.24c-1.08.16-2.16.29-3.24.43q-2.36,8.3-4.57,16.63l-2,7.56c4.22,2.09,8.42,4.22,12.57,6.43q-6.43-2.64-12.91-5.15l-2,7.8-2.15,8.2-2.25,8.15q-4.49,16.31-9.61,32.33-3,9.44-6.29,18.7,15.36-1.83,30.74-2.79l1.22-.07c.74-2.44,1.47-4.89,2.17-7.33Q1434.57,323.35,1438.75,306.48Zm-297.92-58-.55.24-.49.2-.72.28-1.44.57c-.49.19-.91.4-1.47.58l-1.66.52a129.91,129.91,0,0,1-14.53,3.62l-7.86,1.37-8,1.16c-10.8,1.45-21.9,2.45-33,3.26s-22.38,1.38-33.64,1.79c-20.82.79-41.76,1.06-62.73,1.1.51.8,1,1.58,1.55,2.38,3.33,5.3,6.52,10.65,9.62,16s6.08,10.71,9,16h0c14.57-.11,29.16-.37,43.79-.87,11.58-.39,23.17-.93,34.83-1.75s23.35-1.8,35.2-3.39c3.19-.45,6.38-.91,9.59-1.43a178.75,178.75,0,0,0,10.33-14.86c3-4.86,5.85-9.89,8.5-15l1.16-2.21c.4-.77.84-1.53,1.28-2.28s.89-1.51,1.36-2.24.94-1.48,1.44-2.2c1.19-1.74,2.47-3.42,3.81-5.06l-.91.35Zm169.27,119.85c-1.87-5.15-3.62-10.36-5.24-15.58l-1.16-3.85-1.16-4.1c-.92-3.14-1.88-6.08-2.91-9-2.05-5.87-4.34-11.59-6.87-17.24a193.79,193.79,0,0,0-18.45-32.68,150.72,150.72,0,0,0-12.17-15.06,123.64,123.64,0,0,0-14.7-13.49,101.48,101.48,0,0,0-17.49-10.89,94.1,94.1,0,0,0-19.86-7,91.25,91.25,0,0,0-16.64-2.15c-1.41.44-2.8.9-4.17,1.41-10.29,3.73-19.37,9.47-25.86,17.28a51,51,0,0,0-4.43,6.17c-.34.53-.66,1.09-1,1.64s-.62,1.11-.91,1.68-.59,1.13-.85,1.72l-.86,1.85q-3.15,7-6.83,13.71l1.69-.67,2.54-1,2.2-.92,3.44-1.5,3.45-1.35a94.41,94.41,0,0,1,13.85-4,63.82,63.82,0,0,1,26.79-.15A59.61,59.61,0,0,1,1215,277.4a70.91,70.91,0,0,1,11.6,7.14,89.43,89.43,0,0,1,10.61,9.58,116.66,116.66,0,0,1,9.46,11.51,160.14,160.14,0,0,1,15.42,26.81c2.18,4.76,4.19,9.64,6,14.54.88,2.44,1.72,4.93,2.42,7.26l1.21,4.14,1.35,4.35q2.56,8,5.53,15.92,13.66-4.8,27.51-9.11C1307.37,369.12,1308.73,368.72,1310.09,368.32ZM390.54,253.67q-6.07-8.36-12-16.81-46.3-3-92.59-6.08c-5.66-.38-11.5-.78-17.29-1s-11.59-.45-17.39-.53-11.62-.07-17.36,0l-17.16.26-34.32.56-17.15.29-8.58.16-8.57.32-68.58,2.77-34.28,1.55-17.14.78L11,236.79l17.15.58,17.14.5,34.29,1,68.55,1.67,8.57.21,8.56.36,17.13.68,34.25,1.34,17.12.65c5.7.2,11.28.46,16.92.82s11.24.81,16.84,1.35,11.15,1.19,16.88,1.87q49.9,5.75,99.87,10.94,3.2-2.48,6.29-5.07Zm551,13.57c-1-1.4-2.08-2.79-3.12-4.18-35.1-.31-70.25-1.23-105.42-2.33-45.56-1.41-91.13-3.48-136.72-5.59q-34.19-1.62-68.38-3.49-12.72-.66-25.43-1.36-5.56,5.29-11.11,10.61-8.17,7.84-16.4,15.75,25.51,2.13,51,4.15,34.23,2.65,68.5,5,68.52,4.81,137.22,7.94c22.9,1.09,45.82,1.89,68.77,2.56q30.59.87,61.25,1.19l-.69-1.13C954.84,286.3,948.41,276.6,941.55,267.24ZM602.47,250.29q-21.48-1.16-43-2.39l-1.27-.07c-5.77,5.71-11.53,11.38-17.29,16.93q-4.33,4.17-8.68,8.23,12.65,1.12,25.3,2.22l17.4,1.45q8.25-7.9,16.4-15.75Q596.91,255.57,602.47,250.29Zm825.58-1A155.11,155.11,0,0,0,1450.5,244c1.29-.4,2.58-.83,3.86-1.26.22-.84.44-1.67.67-2.51q1.68-6.06,3.47-12.07c-3.79,1.24-7.62,2.34-11.48,3.27a145.84,145.84,0,0,1-17.74,3.2q-2.3,7.51-4.45,15C1425.89,249.55,1427,249.42,1428.05,249.25Zm95-56.74q-2.17,1.67-4.37,3.31c.42,1.09.86,2.16,1.27,3.26.54,1.46,1,2.93,1.56,4.4,2.09-1.79,4.11-3.64,6.18-5.44q5.11-4.58,9.95-9.41-1.07-3.16-2.22-6.31c-1.29,1.12-2.59,2.23-3.87,3.35C1528.71,187.94,1525.92,190.29,1523,192.51Zm-528.19,105h0c-2.93-5.24-5.92-10.6-9-16s-6.29-10.71-9.62-16c-.51-.8-1-1.59-1.55-2.38l-5.17,0q-15.53,0-31.07-.11c1,1.39,2.09,2.78,3.12,4.18,6.86,9.36,13.29,19.06,19.51,29.11l.69,1.13,7.68.08Q982.13,297.62,994.86,297.51Zm327.84,99.94c-2.39-4.58-4.63-9.37-6.72-14.24s-4-9.85-5.88-14.9c-1.36.41-2.72.8-4.08,1.22q-13.85,4.28-27.51,9.11,3.37,9,7.31,17.82c1.76,3.91,3.61,7.81,5.59,11.69q12-4.42,24.22-8.43Zm263.55-42.9c-.61-.94-1.21-1.88-1.81-2.83q-7.54-.62-15.1-1.21,3.48,5.48,7.33,10.71a177.07,177.07,0,0,0,11.85,14.46l14.65.66A164.32,164.32,0,0,1,1586.25,354.56Z" transform="translate(16 28)"/>
      </g>
      <g id="catid-6">
        <path class="cls-7" d="M637.49,586.06c5.22-8.63,10.45-17.19,15.76-25.62q5.68,1.6,11.25,3.54c5.37,1.94,10.73,3.93,15.9,6.36l3.9,1.75,3.61,1.74,7.21,3.47,14.42,7,14.38,7,14.37,7.05,14.33,7.15c38.19,19.12,76.23,38.59,113.65,59.5-40.85-13-81.08-27.4-121.15-42.18l-15-5.56-15-5.66-15-5.66-14.94-5.75-7.47-2.88L674,595.87l-3.52-1.24c-4.66-1.73-9.42-3.13-14.17-4.52A163.12,163.12,0,0,0,637.49,586.06ZM436.71,601.79l-27,10.94c-9.58,3.89-19.16,7.76-28.7,11.74l1-.27-1.92.64.91-.37c-6.95,1.86-13.93,3.62-21,5-1.85.35-3.7.74-5.56,1.07l-5.59.9c-3.72.67-7.48,1.06-11.22,1.6a296.64,296.64,0,0,1-90.62-3.18c-1.88-.31-3.74-.72-5.61-1.13l-5.6-1.21-11.67-2.73-23.42-5.32c-15.6-3.6-31.27-6.95-46.91-10.4s-31.34-6.69-47.05-9.87c-31.42-6.38-62.91-12.52-94.65-17.7,30,11.47,60.36,22,90.73,32.26,15.18,5.15,30.41,10.13,45.64,15.12s30.49,9.85,45.78,14.58l22.92,7.17,11.5,3.5,6,1.73c2,.58,4,1.16,6.07,1.64a295.62,295.62,0,0,0,49.65,8.4c4.2.29,8.4.69,12.61.79l6.32.21h6.32c4.22.06,8.43-.17,12.65-.28,2.11,0,4.21-.25,6.32-.36s4.22-.24,6.32-.44c8.41-.76,16.81-1.75,25.13-3.28s16.59-3.28,24.8-5.31l.71-.17,1.21-.47c9.95-3.83,19.85-7.79,29.76-11.73L452.36,633h0q-1.67-3.2-3.32-6.4C444.84,618.32,440.75,610.05,436.71,601.79ZM382.07,624.2l-1,.27-.91.37ZM477,623l5-2c9.87-4,19.77-8,29.61-12.09l14.77-6.12,7.39-3.06c2.43-1,5-2.11,7.2-2.92s4.52-1.8,6.82-2.59l6.91-2.35c2.33-.7,4.68-1.34,7-2l1.76-.5,1.78-.41,3.56-.83a192.17,192.17,0,0,1,29-4.1c1.77-.11,3.55-.18,5.33-.23l0,0c5.74-9.82,11.49-19.72,17.39-29.61a195.21,195.21,0,0,0-58.21,2.19,189.67,189.67,0,0,0-33.46,9.22c-2.84,1-5.17,2-7.69,2.92l-7.45,2.9-14.91,5.79c-10,3.83-19.84,7.82-29.75,11.74l-8.54,3.39c3.86,7.42,7.72,14.81,11.67,22.1Q474.6,618.73,477,623Zm143.58-68.89c-5.9,9.89-11.65,19.79-17.39,29.61l0,0a179.22,179.22,0,0,1,24.08,1q5.13.54,10.25,1.33c5.22-8.63,10.45-17.19,15.76-25.62a208.2,208.2,0,0,0-22-4.9Q625.92,554.69,620.58,554.12Z" transform="translate(16 28)"/>
      </g>
      <g id="catid-7">
        <path class="cls-8" d="M1345.46,358.87a496.87,496.87,0,0,1,50.12-8.53q-2.29,6.46-4.7,12.84c-2.51,6.55-5.19,13-8,19.26-10.18,1.8-20.29,3.91-30.27,6.41-6.21,1.53-12.3,3.24-18.46,5.07-3.82,1.14-7.62,2.33-11.42,3.54-2.39-4.58-4.63-9.37-6.72-14.24s-4-9.85-5.88-14.9q7.68-2.31,15.42-4.45C1332.09,362.06,1338.78,360.35,1345.46,358.87ZM744.85,458c-.44-.2-.9-.38-1.35-.58l-.64-.18Zm824.49-107.52c-20.65-1.6-41.41-3-62.27-3.77-26.37-1-52.92-.91-79.53.73q-4,13.1-8.65,26.12-.7,1.94-1.42,3.89,5.55-.62,11.11-1.15c25.76-2.42,51.8-3.19,78-3.08,27.22,0,54.52,1.2,82,2.44a177.07,177.07,0,0,1-11.85-14.46Q1572.82,356,1569.34,350.51Zm371.23,43.57q-18.71-6.85-37.87-12.48T1864,371.51c-13-2.94-26.13-5.51-39.35-7.55s-26.53-3.71-39.92-4.74-26.84-1.52-40.33-1.43l-10.12.19-10.13.47-5,.26q-2.4.15-4.81.23c-3.21.14-6.44.21-9.67.25-12.93.16-26-.33-39-1.08-26.14-1.49-52.43-4-78.86-6.2l-2.44-.2c.6.95,1.19,1.9,1.81,2.83a164.32,164.32,0,0,0,16.93,21.78c20.52.91,41.14,1.75,61.89,2.06,13.39.12,26.84,0,40.38-.84q3.23-.2,6.47-.45c1.37-1.24,2.73-2.5,4.11-3.74,2.05-2,4.05-4,6.09-6-2.69,3.3-5.49,6.52-8.41,9.63l1.9-.16q2.54-.22,5.09-.49l4.94-.5,9.67-1,9.71-.71q19.45-1.17,39-.73c13.05.22,26.12,1,39.17,2.27s26.08,2.86,39.06,4.92,25.93,4.49,38.81,7.28a641.62,641.62,0,0,1,76.31,21.25C1965.4,403.5,1953,398.64,1940.57,394.08Zm-662.06-15.44q-5.46,1.92-10.89,3.91-38,14-74.48,31.29l-18,8.64-8.72,4.14c-2.91,1.36-5.87,2.63-8.8,4-5.85,2.69-11.83,5.05-17.76,7.57l-9,3.52-4.49,1.76-4.53,1.65-9.07,3.29-9.13,3.1c-3,1.07-6.1,2-9.17,3s-6.12,2-9.21,2.86c-6.18,1.78-12.34,3.63-18.57,5.2s-12.47,3.15-18.72,4.64a602.49,602.49,0,0,1-153.13,14.91l-9.63-.44c-3.21-.12-6.42-.32-9.63-.54s-6.42-.39-9.62-.66l-9.61-.86c-12.79-1.27-25.57-2.83-38.25-5-6.36-1-12.67-2.23-19-3.4-3.16-.61-6.29-1.32-9.44-2s-6.3-1.33-9.42-2.1l-9.39-2.22-9.34-2.42-4.67-1.22-4.64-1.33-8.65-2.48c.45.19.91.37,1.35.58l-2-.76.64.18a49.29,49.29,0,0,0-20.62-3.91A54.41,54.41,0,0,0,702,458.6a80.86,80.86,0,0,0-16.11,9.95A128.42,128.42,0,0,0,673,480.18a235.05,235.05,0,0,0-20.81,25c-6.26,8.55-12.06,17.23-17.59,26-4.83,7.62-9.49,15.28-14.05,22.94q5.34.58,10.63,1.42a208.2,208.2,0,0,1,22,4.9q3.88-6.16,7.83-12.22c5.42-8.26,10.94-16.37,16.72-24.07a204,204,0,0,1,18.15-21.42,96.45,96.45,0,0,1,9.7-8.6,48.82,48.82,0,0,1,9.68-5.91,21.84,21.84,0,0,1,8.43-2,16.52,16.52,0,0,1,7.46,1.68l.88.41,1.12.35a599.87,599.87,0,0,0,79.23,19.29,611,611,0,0,0,81.15,8.61,616.77,616.77,0,0,0,162.14-15.6c6.61-1.6,13.24-3.16,19.8-5s13.11-3.67,19.64-5.57c13-4,26-8.23,38.64-13.16l4.78-1.79,4.73-1.9,9.46-3.82c6.24-2.71,12.54-5.28,18.69-8.18,3.09-1.43,6.2-2.8,9.26-4.28l9.17-4.46,17.68-8.69c23.48-11.31,47.23-22,71.45-31.28q6.17-2.39,12.38-4.65c-2-3.88-3.82-7.78-5.59-11.69Q1281.86,387.6,1278.51,378.64ZM603.17,583.76C593,601.16,582.87,618.43,572,634.7a286,286,0,0,1-17,23.18,129.74,129.74,0,0,1-9.19,10,65,65,0,0,1-9.54,7.84,25.72,25.72,0,0,1-8.73,3.88,12,12,0,0,1-3.33.21,12.62,12.62,0,0,1-3.43-.93A33,33,0,0,1,512,673a85.34,85.34,0,0,1-8.9-9.5,214.91,214.91,0,0,1-16.19-23.42c-3.4-5.58-6.7-11.3-9.94-17.09l-24.62,10c3.65,7,7.44,14,11.49,20.89a241,241,0,0,0,17.82,26.78,112.57,112.57,0,0,0,11.61,12.81,60.27,60.27,0,0,0,16.22,11.13,40.85,40.85,0,0,0,11.12,3.19,39.78,39.78,0,0,0,11.77-.27,53.48,53.48,0,0,0,19.14-7.61,92.9,92.9,0,0,0,14.13-11.06,158.26,158.26,0,0,0,11.53-12.1,298.32,298.32,0,0,0,19.32-25.37c11.84-17.2,22.42-34.7,32.93-52l8-13.29q-5.11-.8-10.25-1.33A179.22,179.22,0,0,0,603.17,583.76Zm-142.59,8.52c-5.43-10.45-10.82-21-16.33-31.51-9.44-18-19.09-36.12-30.21-53.72a283.61,283.61,0,0,0-18.2-25.85c-6.74-8.33-14.16-16.46-23.53-23.36a66,66,0,0,0-15.82-8.73,47.2,47.2,0,0,0-19.13-3,45.6,45.6,0,0,0-9.66,1.59l-1.13.32-.89.28-1.78.55-3.56,1.09q-7.12,2.14-14.3,4.07a401.07,401.07,0,0,1-58.18,11.31c-19.57,2.21-39.34,2.57-58.66-.11a144.79,144.79,0,0,1-28.27-6.8c-2.29-.8-4.53-1.7-6.77-2.62q-1.67-.71-3.32-1.46l-3.36-1.57c-4.68-2.23-9.41-4.32-14.22-6.23a204.49,204.49,0,0,0-60-13.91,198.18,198.18,0,0,0-30.63.14,144.6,144.6,0,0,0-29.95,5.4,119.37,119.37,0,0,1,15-2.12q7.53-.65,15.08-.68a194.36,194.36,0,0,1,30,2.27,204.69,204.69,0,0,1,56.81,17.46c4.47,2.12,8.85,4.41,13.16,6.83l3.4,1.87q1.74.94,3.51,1.83c2.37,1.17,4.76,2.3,7.19,3.32A157,157,0,0,0,187,478.13c20.59,4.2,41.61,4.82,62.31,3.65A399.7,399.7,0,0,0,310.66,473q7.56-1.65,15.07-3.52l7.26-1.84a24.84,24.84,0,0,1,5.3-.72,26.12,26.12,0,0,1,10.56,2,44.87,44.87,0,0,1,10.46,6.23c6.82,5.29,13.06,12.33,18.8,19.87a261.31,261.31,0,0,1,16.05,24.19c10,16.9,19.08,34.71,28,52.74,4.87,9.87,9.69,19.82,14.57,29.8l2.69-1.09Zm967-244.81-1.22.07q-15.37,1-30.74,2.79-2.29,6.46-4.7,12.84c-2.51,6.55-5.19,13-8,19.26,11.45-2,23-3.65,34.62-4.94q.72-1.94,1.42-3.89Q1423.54,360.57,1427.54,347.47ZM1716,373.37c-1.38,1.24-2.74,2.5-4.11,3.74l1.79-.15c2.92-3.11,5.72-6.33,8.41-9.63C1720.07,369.35,1718.07,371.39,1716,373.37Zm-1243.77,241c-3.95-7.29-7.81-14.67-11.67-22.1L439.4,600.7l-2.69,1.09c4,8.26,8.13,16.53,12.36,24.8q1.64,3.2,3.32,6.4L477,623Q474.6,618.72,472.25,614.38Z" transform="translate(16 28)"/>
      </g>
    </g>
    <g id="Text">
      <g id="cid-36">
        
        <g>
          <circle cx="878.78" cy="693" r="29.01"/>
          <text class="cls-9" transform="translate(858.99 691.14)">COMP <tspan x="8.06" y="16.71">655</tspan></text>
        </g>
      </g>
      <g id="cid-25">
        
        <g>
          <circle cx="1447.41" cy="308.88" r="29.01"/>
          <text class="cls-9" transform="translate(1427.62 307.03)">COMP <tspan x="8.06" y="16.71">562</tspan></text>
        </g>
      </g>
      <g id="cid-14">
        
        <g>
          <circle cx="153.49" cy="350.66" r="29.01"/>
          <text class="cls-9" transform="translate(133.7 348.8)">COMP <tspan x="8.06" y="16.71">520</tspan></text>
        </g>
      </g>
      <g id="cid-38">
        
        <g>
          <circle cx="1993.99" cy="437.7" r="29.01"/>
          <text class="cls-9" transform="translate(1974.2 435.84)">COMP <tspan x="8.06" y="16.71">665</tspan></text>
        </g>
      </g>
      <g id="cid-10">
        
        <g>
          <circle cx="172.06" cy="263.63" r="29.01"/>
          <text class="cls-9" transform="translate(152.27 261.77)">COMP <tspan x="8.06" y="16.71">486</tspan></text>
        </g>
      </g>
      <g id="cid-30">
        
        <g>
          <circle cx="1570.42" cy="337.9" r="29.01"/>
          <text class="cls-9" transform="translate(1550.63 336.04)">COMP <tspan x="8.06" y="16.71">581</tspan></text>
        </g>
      </g>
      <g id="cid-22">
        
        <g>
          <circle cx="1009.91" cy="350.66" r="29.01"/>
          <text class="cls-9" transform="translate(990.12 348.8)">COMP <tspan x="8.06" y="16.71">550</tspan></text>
        </g>
      </g>
      <g id="cid-15">
        
        <g>
          <circle cx="490.03" cy="135.98" r="29.01"/>
          <text class="cls-9" transform="translate(470.24 134.12)">COMP <tspan x="8.06" y="16.71">521</tspan></text>
        </g>
      </g>
      <g id="cid-7">
        
        <g>
          <circle cx="211.51" cy="106.96" r="29.01"/>
          <text class="cls-9" transform="translate(191.72 105.11)">COMP <tspan x="8.06" y="16.71">426</tspan></text>
        </g>
      </g>
      <g id="cid-27">
        
        <g>
          <circle cx="346.13" cy="485.28" r="29.01"/>
          <text class="cls-9" transform="translate(326.34 484.58)">COMP <tspan x="8.06" y="16.71">575</tspan></text>
        </g>
      </g>
      <g id="cid-23">
        
        <g>
          <circle cx="1163.1" cy="292.64" r="29.01"/>
          <text class="cls-9" transform="translate(1143.3 290.78)">COMP <tspan x="8.06" y="16.71">555</tspan></text>
        </g>
      </g>
      <g id="cid-17">
        
        <g>
          <circle cx="600.27" cy="234.61" r="29.01"/>
          <text class="cls-9" transform="translate(580.48 232.76)">COMP <tspan x="8.06" y="16.71">524</tspan></text>
        </g>
      </g>
      <g id="cid-19">
        
        <g>
          <circle cx="950.73" cy="164.99" r="29.01"/>
          <text class="cls-9" transform="translate(930.94 163.13)">COMP <tspan x="8.06" y="16.71">533</tspan></text>
        </g>
      </g>
      <g id="cid-8">
        
        <g>
          <g>
            <path d="M335.93,188.71a28.51,28.51,0,1,1,28.51-28.51A28.54,28.54,0,0,1,335.93,188.71Z" transform="translate(16 28)"/>
            <path class="cls-10" d="M335.93,132.18a28,28,0,1,1-28,28,28,28,0,0,1,28-28m0-1a29,29,0,1,0,29,29,29,29,0,0,0-29-29Z" transform="translate(16 28)"/>
          </g>
          <circle cx="351.93" cy="188.2" r="29.01"/>
          <text class="cls-9" transform="translate(332.14 186.34)">COMP <tspan x="8.06" y="16.71">431</tspan></text>
        </g>
      </g>
      <g id="cid-31">
        
        <g>
          <circle cx="1505.43" cy="100" r="29.01"/>
          <text class="cls-9" transform="translate(1485.64 98.14)">COMP <tspan x="8.06" y="16.71">585</tspan></text>
        </g>
      </g>
      <g id="cid-24">
        
        <g>
          <circle cx="1303.51" cy="379.67" r="29.01"/>
          <text class="cls-9" transform="translate(1283.72 377.82)">COMP <tspan x="8.06" y="16.71">560</tspan></text>
        </g>
      </g>
      <g id="cid-20">
        
        <g>
          <circle cx="328.72" cy="679.07" r="29.01"/>
          <text class="cls-9" transform="translate(308.93 677.22)">COMP <tspan x="8.06" y="16.71">535</tspan></text>
        </g>
      </g>
      <g id="cid-21">
        
        <g>
          <circle cx="940.29" cy="234.61" r="29.01"/>
          <text class="cls-9" transform="translate(920.5 232.76)">COMP <tspan x="8.06" y="16.71">541</tspan></text>
        </g>
      </g>
      <g id="cid-18">
        
        <g>
          <circle cx="705.87" cy="178.91" r="29.01"/>
          <text class="cls-9" transform="translate(686.08 177.06)">COMP <tspan x="8.06" y="16.71">530</tspan></text>
        </g>
      </g>
      <g id="cid-34">
        
        <g>
          <circle cx="1600.59" cy="159.18" r="29.01"/>
          <text class="cls-9" transform="translate(1580.8 157.33)">COMP <tspan x="8.06" y="16.71">635</tspan></text>
        </g>
      </g>
      <g id="cid-29">
        
        <g>
          <circle cx="1121.32" cy="77.95" r="29.01"/>
          <text class="cls-9" transform="translate(1101.53 76.1)">COMP <tspan x="8.06" y="16.71">580</tspan></text>
        </g>
      </g>
      <g id="cid-28">
        
        <g>
          <circle cx="734.88" cy="499.2" r="29.01"/>
          <text class="cls-9" transform="translate(715.09 497.34)">COMP <tspan x="8.06" y="16.71">576</tspan></text>
        </g>
      </g>
      <g id="cid-26">
        
        <g>
          <circle cx="162.77" cy="486.44" r="29.01"/>
          <text class="cls-9" transform="translate(142.98 484.58)">COMP <tspan x="8.06" y="16.71">572</tspan></text>
        </g>
      </g>
      <g id="cid-11">
        
        <g>
          <circle cx="274.18" cy="263.63" r="29.01"/>
          <text class="cls-9" transform="translate(254.39 262.93)">COMP <tspan x="8.06" y="16.71">487</tspan></text>
        </g>
      </g>
      <g id="cid-32">
        
        <g>
          <circle cx="1092.31" cy="178.91" r="29.01"/>
          <text class="cls-9" transform="translate(1072.52 177.06)">COMP <tspan x="8.06" y="16.71">631</tspan></text>
        </g>
      </g>
      <g id="cid-33">
        
        <g>
          <circle cx="1303.51" cy="217.21" r="29.01"/>
          <text class="cls-9" transform="translate(1283.72 215.35)">COMP <tspan x="8.06" y="16.71">633</tspan></text>
        </g>
      </g>
      <g id="cid-37">
        
        <g>
          <circle cx="1738.69" cy="395.92" r="29.01"/>
          <text class="cls-9" transform="translate(1718.9 394.06)">COMP <tspan x="8.06" y="16.71">662</tspan></text>
        </g>
      </g>
      <g id="cid-35">
        
        <g>
          <circle cx="1038.93" cy="515.45" r="29.01"/>
          <text class="cls-9" transform="translate(1019.14 513.59)">COMP <tspan x="8.06" y="16.71">651</tspan></text>
        </g>
      </g>
    </g>
  </g>
</svg>
